<mxfile host="65bd71144e">
    <diagram id="K8EZ14fk9MvzVoPlbe1o" name="Page-1">
        <mxGraphModel dx="831" dy="638" grid="1" gridSize="10" guides="1" tooltips="1" connect="1" arrows="1" fold="1" page="1" pageScale="1" pageWidth="827" pageHeight="1169" math="0" shadow="0">
            <root>
                <mxCell id="0"/>
                <mxCell id="1" parent="0"/>
                <mxCell id="134" value="&lt;b&gt;I100KNX Whitebox (Level 1)&lt;/b&gt;" style="verticalAlign=top;align=left;spacingTop=8;spacingLeft=2;spacingRight=12;shape=cube;size=10;direction=south;fontStyle=4;html=1;" vertex="1" parent="1">
                    <mxGeometry x="190" y="90" width="270" height="430" as="geometry"/>
                </mxCell>
                <mxCell id="100" value="User" style="shape=umlActor;verticalLabelPosition=bottom;verticalAlign=top;html=1;outlineConnect=0;" parent="1" vertex="1">
                    <mxGeometry x="40" y="375" width="40" height="70" as="geometry"/>
                </mxCell>
                <mxCell id="101" style="edgeStyle=none;html=1;entryX=0.5;entryY=1;entryDx=0;entryDy=0;exitX=0.75;exitY=0.1;exitDx=0;exitDy=0;exitPerimeter=0;" parent="1" source="100" target="103" edge="1">
                    <mxGeometry relative="1" as="geometry">
                        <mxPoint x="150" y="405" as="sourcePoint"/>
                    </mxGeometry>
                </mxCell>
                <mxCell id="103" value="Snom devices" style="rounded=1;arcSize=10;whiteSpace=wrap;html=1;align=center;" parent="1" vertex="1">
                    <mxGeometry x="40" y="295" width="100" height="40" as="geometry"/>
                </mxCell>
                <mxCell id="104" value="KNX devices" style="rounded=1;arcSize=10;whiteSpace=wrap;html=1;align=center;" parent="1" vertex="1">
                    <mxGeometry x="700" y="395" width="100" height="40" as="geometry"/>
                </mxCell>
                <mxCell id="106" value="" style="endArrow=classic;html=1;entryX=0;entryY=0.5;entryDx=0;entryDy=0;startArrow=classic;startFill=1;exitX=1;exitY=0.5;exitDx=0;exitDy=0;" parent="1" source="124" target="102" edge="1">
                    <mxGeometry relative="1" as="geometry">
                        <mxPoint x="540" y="370" as="sourcePoint"/>
                        <mxPoint x="520" y="330" as="targetPoint"/>
                    </mxGeometry>
                </mxCell>
                <mxCell id="108" value="" style="endArrow=classic;html=1;exitX=1;exitY=0.5;exitDx=0;exitDy=0;entryX=0;entryY=0.5;entryDx=0;entryDy=0;startArrow=classic;startFill=1;" parent="1" source="102" target="104" edge="1">
                    <mxGeometry relative="1" as="geometry">
                        <mxPoint x="418.38" y="290" as="sourcePoint"/>
                        <mxPoint x="518.38" y="290" as="targetPoint"/>
                    </mxGeometry>
                </mxCell>
                <mxCell id="110" value="" style="endArrow=classic;html=1;entryX=0;entryY=0.5;entryDx=0;entryDy=0;" parent="1" source="122" target="128" edge="1">
                    <mxGeometry relative="1" as="geometry">
                        <mxPoint x="260" y="200.31100478468898" as="sourcePoint"/>
                        <mxPoint x="520" y="340" as="targetPoint"/>
                    </mxGeometry>
                </mxCell>
                <mxCell id="111" value="WUI" style="edgeLabel;resizable=0;html=1;align=center;verticalAlign=middle;" parent="110" connectable="0" vertex="1">
                    <mxGeometry relative="1" as="geometry"/>
                </mxCell>
                <mxCell id="112" value="" style="endArrow=classic;html=1;entryX=0.5;entryY=0;entryDx=0;entryDy=0;exitX=1;exitY=1;exitDx=0;exitDy=0;exitPerimeter=0;" parent="1" source="122" target="103" edge="1">
                    <mxGeometry relative="1" as="geometry">
                        <mxPoint x="159.09090909090912" y="255" as="sourcePoint"/>
                        <mxPoint x="450" y="325" as="targetPoint"/>
                    </mxGeometry>
                </mxCell>
                <mxCell id="113" value="WUI" style="edgeLabel;resizable=0;html=1;align=center;verticalAlign=middle;" parent="112" connectable="0" vertex="1">
                    <mxGeometry relative="1" as="geometry"/>
                </mxCell>
                <mxCell id="114" value="" style="endArrow=classic;html=1;entryX=1;entryY=0.5;entryDx=0;entryDy=0;exitX=0;exitY=0.3333333333333333;exitDx=0;exitDy=0;exitPerimeter=0;" parent="1" target="128" edge="1" source="105">
                    <mxGeometry relative="1" as="geometry">
                        <mxPoint x="630" y="145" as="sourcePoint"/>
                        <mxPoint x="550" y="290" as="targetPoint"/>
                    </mxGeometry>
                </mxCell>
                <mxCell id="115" value="WUI" style="edgeLabel;resizable=0;html=1;align=center;verticalAlign=middle;" parent="114" connectable="0" vertex="1">
                    <mxGeometry relative="1" as="geometry"/>
                </mxCell>
                <mxCell id="116" value="" style="endArrow=classic;html=1;entryX=0.5;entryY=0;entryDx=0;entryDy=0;" parent="1" source="105" target="102" edge="1">
                    <mxGeometry relative="1" as="geometry">
                        <mxPoint x="648.38" y="423.33333333333337" as="sourcePoint"/>
                        <mxPoint x="573.38" y="290" as="targetPoint"/>
                    </mxGeometry>
                </mxCell>
                <mxCell id="117" value="ETS" style="edgeLabel;resizable=0;html=1;align=center;verticalAlign=middle;" parent="116" connectable="0" vertex="1">
                    <mxGeometry relative="1" as="geometry"/>
                </mxCell>
                <mxCell id="118" value="" style="endArrow=classic;html=1;entryX=0.5;entryY=0;entryDx=0;entryDy=0;exitX=1;exitY=0.3333333333333333;exitDx=0;exitDy=0;exitPerimeter=0;" parent="1" source="105" target="104" edge="1">
                    <mxGeometry relative="1" as="geometry">
                        <mxPoint x="658.38" y="433.3333333333335" as="sourcePoint"/>
                        <mxPoint x="493.38" y="380" as="targetPoint"/>
                    </mxGeometry>
                </mxCell>
                <mxCell id="119" value="ETS" style="edgeLabel;resizable=0;html=1;align=center;verticalAlign=middle;" parent="118" connectable="0" vertex="1">
                    <mxGeometry relative="1" as="geometry"/>
                </mxCell>
                <mxCell id="120" value="" style="endArrow=none;html=1;startArrow=classic;startFill=1;exitX=0;exitY=0.5;exitDx=0;exitDy=0;entryX=1;entryY=0.5;entryDx=0;entryDy=0;endFill=0;" parent="1" source="126" target="103" edge="1">
                    <mxGeometry relative="1" as="geometry">
                        <mxPoint x="420" y="440" as="sourcePoint"/>
                        <mxPoint x="340" y="480" as="targetPoint"/>
                    </mxGeometry>
                </mxCell>
                <mxCell id="122" value="IT admin" style="shape=umlActor;verticalLabelPosition=bottom;verticalAlign=top;html=1;outlineConnect=0;" parent="1" vertex="1">
                    <mxGeometry x="40" y="145" width="40" height="70" as="geometry"/>
                </mxCell>
                <mxCell id="124" value="Baos 777" style="html=1;dropTarget=0;fontSize=12;" parent="1" vertex="1">
                    <mxGeometry x="280" y="385" width="130" height="60" as="geometry"/>
                </mxCell>
                <mxCell id="125" value="" style="shape=module;jettyWidth=8;jettyHeight=4;fontSize=12;" parent="124" vertex="1">
                    <mxGeometry x="1" width="20" height="20" relative="1" as="geometry">
                        <mxPoint x="-27" y="7" as="offset"/>
                    </mxGeometry>
                </mxCell>
                <mxCell id="126" value="snomsyslogknx" style="html=1;dropTarget=0;fontSize=12;" parent="1" vertex="1">
                    <mxGeometry x="224" y="290" width="130" height="60" as="geometry"/>
                </mxCell>
                <mxCell id="127" value="" style="shape=module;jettyWidth=8;jettyHeight=4;fontSize=12;" parent="126" vertex="1">
                    <mxGeometry x="1" width="20" height="20" relative="1" as="geometry">
                        <mxPoint x="-27" y="7" as="offset"/>
                    </mxGeometry>
                </mxCell>
                <mxCell id="128" value="iot" style="html=1;dropTarget=0;fontSize=12;" parent="1" vertex="1">
                    <mxGeometry x="260" y="155" width="130" height="60" as="geometry"/>
                </mxCell>
                <mxCell id="129" value="" style="shape=module;jettyWidth=8;jettyHeight=4;fontSize=12;" parent="128" vertex="1">
                    <mxGeometry x="1" width="20" height="20" relative="1" as="geometry">
                        <mxPoint x="-27" y="7" as="offset"/>
                    </mxGeometry>
                </mxCell>
                <mxCell id="130" value="" style="endArrow=classic;html=1;entryX=0;entryY=1;entryDx=0;entryDy=0;startArrow=classic;startFill=1;exitX=1;exitY=0;exitDx=0;exitDy=0;" parent="1" target="128" edge="1" source="103">
                    <mxGeometry relative="1" as="geometry">
                        <mxPoint x="240" y="260" as="sourcePoint"/>
                        <mxPoint x="328.3800000000001" y="215" as="targetPoint"/>
                    </mxGeometry>
                </mxCell>
                <mxCell id="131" value="" style="endArrow=classic;html=1;startArrow=classic;startFill=1;exitX=0.75;exitY=0;exitDx=0;exitDy=0;entryX=0.891;entryY=1.003;entryDx=0;entryDy=0;entryPerimeter=0;" parent="1" source="124" target="128" edge="1">
                    <mxGeometry relative="1" as="geometry">
                        <mxPoint x="290" y="260" as="sourcePoint"/>
                        <mxPoint x="380" y="220" as="targetPoint"/>
                    </mxGeometry>
                </mxCell>
                <mxCell id="133" value="" style="endArrow=classic;html=1;startArrow=classic;startFill=1;exitX=0.5;exitY=0;exitDx=0;exitDy=0;" parent="1" source="126" edge="1">
                    <mxGeometry relative="1" as="geometry">
                        <mxPoint x="295.84000000000003" y="384.82000000000005" as="sourcePoint"/>
                        <mxPoint x="290" y="220" as="targetPoint"/>
                    </mxGeometry>
                </mxCell>
                <mxCell id="136" value="&lt;span style=&quot;color: rgb(240, 240, 240); font-family: Helvetica; font-size: 16px; font-style: normal; font-variant-ligatures: normal; font-variant-caps: normal; letter-spacing: normal; orphans: 2; text-align: center; text-indent: 0px; text-transform: none; widows: 2; word-spacing: 0px; -webkit-text-stroke-width: 0px; background-color: rgb(42, 37, 47); text-decoration-thickness: initial; text-decoration-style: initial; text-decoration-color: initial; float: none; display: inline !important;&quot;&gt;LAN&lt;/span&gt;" style="text;whiteSpace=wrap;html=1;fontStyle=1;fontSize=16;" vertex="1" parent="1">
                    <mxGeometry x="344" y="30" width="30" height="25" as="geometry"/>
                </mxCell>
                <mxCell id="137" value="&lt;div style=&quot;text-align: center; font-size: 16px;&quot;&gt;&lt;span style=&quot;background-color: initial; font-size: 16px;&quot;&gt;KNX&lt;/span&gt;&lt;/div&gt;" style="text;whiteSpace=wrap;html=1;fontStyle=1;fontSize=16;" vertex="1" parent="1">
                    <mxGeometry x="700" y="30" width="30" height="25" as="geometry"/>
                </mxCell>
                <mxCell id="143" value="" style="endArrow=none;dashed=1;html=1;startArrow=none;" edge="1" parent="1" source="105">
                    <mxGeometry width="50" height="50" relative="1" as="geometry">
                        <mxPoint x="540" y="570" as="sourcePoint"/>
                        <mxPoint x="540" y="20" as="targetPoint"/>
                    </mxGeometry>
                </mxCell>
                <mxCell id="144" value="" style="endArrow=none;dashed=1;html=1;startArrow=none;" edge="1" parent="1" target="105">
                    <mxGeometry width="50" height="50" relative="1" as="geometry">
                        <mxPoint x="540" y="390" as="sourcePoint"/>
                        <mxPoint x="540" y="20" as="targetPoint"/>
                    </mxGeometry>
                </mxCell>
                <mxCell id="105" value="KNX admin" style="shape=umlActor;verticalLabelPosition=bottom;verticalAlign=top;html=1;outlineConnect=0;" parent="1" vertex="1">
                    <mxGeometry x="520" y="155" width="40" height="70" as="geometry"/>
                </mxCell>
                <mxCell id="145" value="" style="endArrow=none;dashed=1;html=1;entryX=0.2;entryY=0.875;entryDx=0;entryDy=0;entryPerimeter=0;" edge="1" parent="1" target="102">
                    <mxGeometry width="50" height="50" relative="1" as="geometry">
                        <mxPoint x="540" y="570" as="sourcePoint"/>
                        <mxPoint x="540" y="440" as="targetPoint"/>
                    </mxGeometry>
                </mxCell>
                <mxCell id="102" value="BAOS 777" style="rounded=1;arcSize=10;whiteSpace=wrap;html=1;align=center;" parent="1" vertex="1">
                    <mxGeometry x="520" y="395" width="100" height="40" as="geometry"/>
                </mxCell>
            </root>
        </mxGraphModel>
    </diagram>
</mxfile>